<svg width="16" height="16" viewBox="0 0 16 16" fill="none" xmlns="http://www.w3.org/2000/svg">
<path d="M8.07927 1.91219C7.86957 2.23965 7.70029 2.59548 7.57849 2.97264L3.29565 2.97224C2.61296 2.97224 2.05953 3.52567 2.05953 4.20835V10.2124C2.05953 10.895 2.61296 11.4485 3.29565 11.4485H4.88409L4.88484 14.0977L8.42626 11.4485H12.8314C13.5141 11.4485 14.0675 10.895 14.0675 10.2124L14.0683 8.45864C14.4575 8.25572 14.8139 7.99868 15.1276 7.69749L15.1271 10.2124C15.1271 11.4802 14.0993 12.508 12.8314 12.508H8.77871L5.23719 15.1573C4.8467 15.4494 4.29337 15.3696 4.0013 14.9791C3.88712 14.8264 3.82541 14.6409 3.82541 14.4504L3.82486 12.508H3.29565C2.0278 12.508 1 11.4802 1 10.2124V4.20835C1 2.9405 2.0278 1.91271 3.29565 1.91271L8.07927 1.91219ZM11.9485 0.5C14.0941 0.5 15.8334 2.23935 15.8334 4.38494C15.8334 6.53054 14.0941 8.26989 11.9485 8.26989C9.80288 8.26989 8.06353 6.53054 8.06353 4.38494C8.06353 2.23935 9.80288 0.5 11.9485 0.5ZM11.9485 1.55953L11.885 1.56522C11.7408 1.59139 11.6272 1.70506 11.601 1.84922L11.5953 1.91271L11.5946 4.03177H9.47624L9.41276 4.03746C9.26859 4.06362 9.15492 4.1773 9.12875 4.32146L9.12306 4.38494L9.12875 4.44843C9.15492 4.59259 9.26859 4.70626 9.41276 4.73243L9.47624 4.73812H11.5946L11.5953 6.85718L11.601 6.92066C11.6272 7.06482 11.7408 7.1785 11.885 7.20467L11.9485 7.21036L12.012 7.20467C12.1561 7.1785 12.2698 7.06482 12.296 6.92066L12.3017 6.85718L12.3009 4.73812H14.4207L14.4842 4.73243C14.6284 4.70626 14.742 4.59259 14.7682 4.44843L14.7739 4.38494L14.7682 4.32146C14.742 4.1773 14.6284 4.06362 14.4842 4.03746L14.4207 4.03177H12.3009L12.3017 1.91271L12.296 1.84922C12.2698 1.70506 12.1561 1.59139 12.012 1.56522L11.9485 1.55953Z" fill="#A4A7AE"/>
</svg>
